<svg xmlns="http://www.w3.org/2000/svg" viewBox="0 0 100 100">
  <defs>
    <linearGradient id="g" x1="0%" y1="0%" x2="100%" y2="100%">
      <stop offset="0%" stop-color="#3d8b6e"/>
      <stop offset="100%" stop-color="#5ab890"/>
    </linearGradient>
  </defs>
  <rect width="100" height="100" rx="16" fill="#fff"/>
  <g transform="translate(50,50)">
    <!-- Three curved arrows forming a cycle -->
    <path d="M-4,-30 A30,30 0 0,1 26,15 L20,12 L30,20 L27,8 L23,11 A25,25 0 0,0 -2,-25Z" fill="url(#g)"/>
    <path d="M26,15 A30,30 0 0,1 -22,20 L-18,15 L-28,22 L-18,28 L-16,22 A25,25 0 0,0 22,13Z" fill="url(#g)"/>
    <path d="M-22,20 A30,30 0 0,1 -4,-30 L-2,-24 L-8,-34 L-14,-24 L-8,-23 A25,25 0 0,0 -19,16Z" fill="url(#g)"/>
  </g>
</svg>
